<?xml version="1.0" encoding="UTF-8" standalone="no"?>
<!DOCTYPE svg PUBLIC "-//W3C//DTD SVG 1.1//EN" "http://www.w3.org/Graphics/SVG/1.1/DTD/svg11.dtd">
<svg width="100%" height="100%" viewBox="0 0 504 491" version="1.1" xmlns="http://www.w3.org/2000/svg" xmlns:xlink="http://www.w3.org/1999/xlink" xml:space="preserve" xmlns:serif="http://www.serif.com/" style="fill-rule:evenodd;clip-rule:evenodd;stroke-linejoin:round;stroke-miterlimit:2;">
    <g transform="matrix(1,0,0,1,-1209.25,-1393.46)">
        <g transform="matrix(4.16667,0,0,4.16667,0,0)">
            <g transform="matrix(1,0,0,1,350.609,452.706)">
                <path d="M0,-118.275C-33.347,-118.275 -60.388,-91.24 -60.388,-57.887C-60.388,-31.207 -43.085,-8.571 -19.091,-0.586C-16.073,-0.027 -14.965,-1.896 -14.965,-3.491C-14.965,-4.93 -15.021,-9.688 -15.047,-14.734C-31.847,-11.081 -35.392,-21.859 -35.392,-21.859C-38.139,-28.838 -42.097,-30.695 -42.097,-30.695C-47.576,-34.443 -41.684,-34.366 -41.684,-34.366C-35.62,-33.94 -32.427,-28.142 -32.427,-28.142C-27.041,-18.911 -18.3,-21.58 -14.854,-23.123C-14.311,-27.025 -12.747,-29.69 -11.02,-31.198C-24.433,-32.724 -38.533,-37.903 -38.533,-61.042C-38.533,-67.634 -36.174,-73.021 -32.311,-77.25C-32.938,-78.772 -35.005,-84.914 -31.725,-93.232C-31.725,-93.232 -26.654,-94.854 -15.115,-87.041C-10.298,-88.379 -5.132,-89.05 0,-89.074C5.132,-89.05 10.302,-88.379 15.128,-87.041C26.654,-94.854 31.718,-93.232 31.718,-93.232C35.005,-84.914 32.938,-78.772 32.311,-77.25C36.183,-73.021 38.525,-67.634 38.525,-61.042C38.525,-37.847 24.398,-32.741 10.951,-31.246C13.117,-29.372 15.047,-25.697 15.047,-20.063C15.047,-11.983 14.978,-5.48 14.978,-3.491C14.978,-1.883 16.064,0 19.125,-0.593C43.107,-8.587 60.388,-31.215 60.388,-57.887C60.388,-91.24 33.351,-118.275 0,-118.275" style="fill:white;"/>
            </g>
        </g>
    </g>
</svg>
