<?xml version="1.0" encoding="UTF-8" standalone="no"?>
<!DOCTYPE svg PUBLIC "-//W3C//DTD SVG 1.1//EN" "http://www.w3.org/Graphics/SVG/1.1/DTD/svg11.dtd">
<svg width="100%" height="100%" viewBox="0 0 22 12" version="1.1" xmlns="http://www.w3.org/2000/svg" xmlns:xlink="http://www.w3.org/1999/xlink" xml:space="preserve" xmlns:serif="http://www.serif.com/" style="fill-rule:evenodd;clip-rule:evenodd;stroke-linejoin:round;stroke-miterlimit:2;">
    <g transform="matrix(1,0,0,1,-1,-6)">
        <path d="M12.65,10C11.83,7.67 9.61,6 7,6C3.69,6 1,8.69 1,12C1,15.31 3.69,18 7,18C9.61,18 11.83,16.33 12.65,14L17,14L17,18L21,18L21,14L23,14L23,10L12.65,10ZM7,14C5.9,14 5,13.1 5,12C5,10.9 5.9,10 7,10C8.1,10 9,10.9 9,12C9,13.1 8.1,14 7,14Z" style="fill:rgb(111,0,246);fill-rule:nonzero;"/>
    </g>
</svg>
